<?xml version="1.0" standalone="no"?><!DOCTYPE svg PUBLIC "-//W3C//DTD SVG 1.1//EN" "http://www.w3.org/Graphics/SVG/1.1/DTD/svg11.dtd"><svg t="1775907551271" class="icon" viewBox="0 0 1024 1024" version="1.1" xmlns="http://www.w3.org/2000/svg" p-id="74611" xmlns:xlink="http://www.w3.org/1999/xlink" width="200" height="200"><path d="M866.461538 787.692308h78.769231v78.76923h-78.769231zM866.461538 708.923077h78.769231v78.769231h-78.769231zM866.461538 630.153846h78.769231v78.769231h-78.769231zM866.461538 551.384615h78.769231v78.769231h-78.769231zM866.461538 472.615385h78.769231v78.76923h-78.769231zM866.461538 393.846154h78.769231v78.769231h-78.769231zM866.461538 315.076923h78.769231v78.769231h-78.769231zM866.461538 236.307692h78.769231v78.769231h-78.769231zM866.461538 157.538462h78.769231v78.76923h-78.769231zM866.461538 78.769231h78.769231v78.769231h-78.769231zM787.692308 866.461538h78.76923v78.769231h-78.76923z" fill="#1E2028" p-id="74612"></path><path d="M787.692308 787.692308h78.76923v78.76923h-78.76923zM787.692308 708.923077h78.76923v78.769231h-78.76923zM787.692308 630.153846h78.76923v78.769231h-78.76923zM787.692308 551.384615h78.76923v78.769231h-78.76923zM787.692308 472.615385h78.76923v78.76923h-78.76923zM787.692308 393.846154h78.76923v78.769231h-78.76923zM787.692308 315.076923h78.76923v78.769231h-78.76923zM787.692308 236.307692h78.76923v78.769231h-78.76923zM787.692308 157.538462h78.76923v78.76923h-78.76923z" fill="#AF1441" p-id="74613"></path><path d="M787.692308 78.769231h78.76923v78.769231h-78.76923z" fill="#FF1A51" p-id="74614"></path><path d="M787.692308 0h78.76923v78.769231h-78.76923zM708.923077 945.230769h78.769231v78.769231h-78.769231z" fill="#1E2028" p-id="74615"></path><path d="M708.923077 866.461538h78.769231v78.769231h-78.769231z" fill="#AF1441" p-id="74616"></path><path d="M708.923077 787.692308h78.769231v78.76923h-78.769231zM708.923077 708.923077h78.769231v78.769231h-78.769231z" fill="#FF1A51" p-id="74617"></path><path d="M708.923077 630.153846h78.769231v78.769231h-78.769231z" fill="#1E2028" p-id="74618"></path><path d="M708.923077 551.384615h78.769231v78.769231h-78.769231z" fill="#FF1A51" p-id="74619"></path><path d="M708.923077 472.615385h78.769231v78.76923h-78.769231zM708.923077 393.846154h78.769231v78.769231h-78.769231zM708.923077 315.076923h78.769231v78.769231h-78.769231zM708.923077 236.307692h78.769231v78.769231h-78.769231zM708.923077 157.538462h78.769231v78.76923h-78.769231z" fill="#1E2028" p-id="74620"></path><path d="M708.923077 78.769231h78.769231v78.769231h-78.769231z" fill="#FF1A51" p-id="74621"></path><path d="M708.923077 0h78.769231v78.769231h-78.769231zM630.153846 945.230769h78.769231v78.769231h-78.769231z" fill="#1E2028" p-id="74622"></path><path d="M630.153846 866.461538h78.769231v78.769231h-78.769231z" fill="#AF1441" p-id="74623"></path><path d="M630.153846 787.692308h78.769231v78.76923h-78.769231z" fill="#FF1A51" p-id="74624"></path><path d="M630.153846 708.923077h78.769231v78.769231h-78.769231z" fill="#1E2028" p-id="74625"></path><path d="M630.153846 630.153846h78.769231v78.769231h-78.769231zM630.153846 551.384615h78.769231v78.769231h-78.769231z" fill="#FF1A51" p-id="74626"></path><path d="M630.153846 472.615385h78.769231v78.76923h-78.769231z" fill="#1E2028" p-id="74627"></path><path d="M630.153846 393.846154h78.769231v78.769231h-78.769231zM630.153846 315.076923h78.769231v78.769231h-78.769231zM630.153846 236.307692h78.769231v78.769231h-78.769231z" fill="#FFDD4D" p-id="74628"></path><path d="M630.153846 157.538462h78.769231v78.76923h-78.769231z" fill="#1E2028" p-id="74629"></path><path d="M630.153846 78.769231h78.769231v78.769231h-78.769231z" fill="#FF1A51" p-id="74630"></path><path d="M630.153846 0h78.769231v78.769231h-78.769231zM551.384615 945.230769h78.769231v78.769231h-78.769231z" fill="#1E2028" p-id="74631"></path><path d="M551.384615 866.461538h78.769231v78.769231h-78.769231z" fill="#AF1441" p-id="74632"></path><path d="M551.384615 787.692308h78.769231v78.76923h-78.769231zM551.384615 708.923077h78.769231v78.769231h-78.769231zM551.384615 630.153846h78.769231v78.769231h-78.769231zM551.384615 551.384615h78.769231v78.769231h-78.769231z" fill="#FF1A51" p-id="74633"></path><path d="M551.384615 472.615385h78.769231v78.76923h-78.769231z" fill="#1E2028" p-id="74634"></path><path d="M551.384615 393.846154h78.769231v78.769231h-78.769231zM551.384615 315.076923h78.769231v78.769231h-78.769231zM551.384615 236.307692h78.769231v78.769231h-78.769231z" fill="#FFDD4D" p-id="74635"></path><path d="M551.384615 157.538462h78.769231v78.76923h-78.769231z" fill="#1E2028" p-id="74636"></path><path d="M551.384615 78.769231h78.769231v78.769231h-78.769231z" fill="#FF1A51" p-id="74637"></path><path d="M551.384615 0h78.769231v78.769231h-78.769231zM472.615385 945.230769h78.76923v78.769231h-78.76923z" fill="#1E2028" p-id="74638"></path><path d="M472.615385 866.461538h78.76923v78.769231h-78.76923z" fill="#AF1441" p-id="74639"></path><path d="M472.615385 787.692308h78.76923v78.76923h-78.76923zM472.615385 708.923077h78.76923v78.769231h-78.76923zM472.615385 630.153846h78.76923v78.769231h-78.76923zM472.615385 551.384615h78.76923v78.769231h-78.76923z" fill="#FF1A51" p-id="74640"></path><path d="M472.615385 472.615385h78.76923v78.76923h-78.76923z" fill="#1E2028" p-id="74641"></path><path d="M472.615385 393.846154h78.76923v78.769231h-78.76923zM472.615385 315.076923h78.76923v78.769231h-78.76923zM472.615385 236.307692h78.76923v78.769231h-78.76923z" fill="#FFDD4D" p-id="74642"></path><path d="M472.615385 157.538462h78.76923v78.76923h-78.76923z" fill="#1E2028" p-id="74643"></path><path d="M472.615385 78.769231h78.76923v78.769231h-78.76923z" fill="#FF1A51" p-id="74644"></path><path d="M472.615385 0h78.76923v78.769231h-78.76923zM393.846154 945.230769h78.769231v78.769231h-78.769231z" fill="#1E2028" p-id="74645"></path><path d="M393.846154 866.461538h78.769231v78.769231h-78.769231z" fill="#AF1441" p-id="74646"></path><path d="M393.846154 787.692308h78.769231v78.76923h-78.769231z" fill="#FF1A51" p-id="74647"></path><path d="M393.846154 708.923077h78.769231v78.769231h-78.769231z" fill="#1E2028" p-id="74648"></path><path d="M393.846154 630.153846h78.769231v78.769231h-78.769231zM393.846154 551.384615h78.769231v78.769231h-78.769231z" fill="#FF1A51" p-id="74649"></path><path d="M393.846154 472.615385h78.769231v78.76923h-78.769231z" fill="#1E2028" p-id="74650"></path><path d="M393.846154 393.846154h78.769231v78.769231h-78.769231zM393.846154 315.076923h78.769231v78.769231h-78.769231zM393.846154 236.307692h78.769231v78.769231h-78.769231z" fill="#FFDD4D" p-id="74651"></path><path d="M393.846154 157.538462h78.769231v78.76923h-78.769231z" fill="#1E2028" p-id="74652"></path><path d="M393.846154 78.769231h78.769231v78.769231h-78.769231z" fill="#FF1A51" p-id="74653"></path><path d="M393.846154 0h78.769231v78.769231h-78.769231zM315.076923 945.230769h78.769231v78.769231h-78.769231z" fill="#1E2028" p-id="74654"></path><path d="M315.076923 866.461538h78.769231v78.769231h-78.769231z" fill="#AF1441" p-id="74655"></path><path d="M315.076923 787.692308h78.769231v78.76923h-78.769231zM315.076923 708.923077h78.769231v78.769231h-78.769231zM315.076923 630.153846h78.769231v78.769231h-78.769231z" fill="#1E2028" p-id="74656"></path><path d="M315.076923 551.384615h78.769231v78.769231h-78.769231z" fill="#FF1A51" p-id="74657"></path><path d="M315.076923 472.615385h78.769231v78.76923h-78.769231z" fill="#1E2028" p-id="74658"></path><path d="M315.076923 393.846154h78.769231v78.769231h-78.769231zM315.076923 315.076923h78.769231v78.769231h-78.769231zM315.076923 236.307692h78.769231v78.769231h-78.769231z" fill="#FF9343" p-id="74659"></path><path d="M315.076923 157.538462h78.769231v78.76923h-78.769231z" fill="#1E2028" p-id="74660"></path><path d="M315.076923 78.769231h78.769231v78.769231h-78.769231z" fill="#FF1A51" p-id="74661"></path><path d="M315.076923 0h78.769231v78.769231h-78.769231zM236.307692 945.230769h78.769231v78.769231h-78.769231z" fill="#1E2028" p-id="74662"></path><path d="M236.307692 866.461538h78.769231v78.769231h-78.769231z" fill="#F4608A" p-id="74663"></path><path d="M236.307692 787.692308h78.769231v78.76923h-78.769231z" fill="#FF1A51" p-id="74664"></path><path d="M236.307692 708.923077h78.769231v78.769231h-78.769231z" fill="#1E2028" p-id="74665"></path><path d="M236.307692 630.153846h78.769231v78.769231h-78.769231zM236.307692 551.384615h78.769231v78.769231h-78.769231z" fill="#FF1A51" p-id="74666"></path><path d="M236.307692 472.615385h78.769231v78.76923h-78.769231zM236.307692 393.846154h78.769231v78.769231h-78.769231zM236.307692 315.076923h78.769231v78.769231h-78.769231zM236.307692 236.307692h78.769231v78.769231h-78.769231zM236.307692 157.538462h78.769231v78.76923h-78.769231z" fill="#1E2028" p-id="74667"></path><path d="M236.307692 78.769231h78.769231v78.769231h-78.769231z" fill="#FF1A51" p-id="74668"></path><path d="M236.307692 0h78.769231v78.769231h-78.769231zM157.538462 945.230769h78.76923v78.769231H157.538462z" fill="#1E2028" p-id="74669"></path><path d="M157.538462 866.461538h78.76923v78.769231H157.538462zM157.538462 787.692308h78.76923v78.76923H157.538462zM157.538462 708.923077h78.76923v78.769231H157.538462zM157.538462 630.153846h78.76923v78.769231H157.538462zM157.538462 551.384615h78.76923v78.769231H157.538462zM157.538462 472.615385h78.76923v78.76923H157.538462zM157.538462 393.846154h78.76923v78.769231H157.538462zM157.538462 315.076923h78.76923v78.769231H157.538462zM157.538462 236.307692h78.76923v78.769231H157.538462zM157.538462 157.538462h78.76923v78.76923H157.538462zM157.538462 78.769231h78.76923v78.769231H157.538462z" fill="#F4608A" p-id="74670"></path><path d="M157.538462 0h78.76923v78.769231H157.538462zM78.769231 866.461538h78.769231v78.769231H78.769231zM78.769231 787.692308h78.769231v78.76923H78.769231zM78.769231 708.923077h78.769231v78.769231H78.769231zM78.769231 630.153846h78.769231v78.769231H78.769231zM78.769231 551.384615h78.769231v78.769231H78.769231zM78.769231 472.615385h78.769231v78.76923H78.769231zM78.769231 393.846154h78.769231v78.769231H78.769231zM78.769231 315.076923h78.769231v78.769231H78.769231zM78.769231 236.307692h78.769231v78.769231H78.769231zM78.769231 157.538462h78.769231v78.76923H78.769231zM78.769231 78.769231h78.769231v78.769231H78.769231z" fill="#1E2028" p-id="74671"></path></svg>